<?xml version="1.0" encoding="UTF-8"?>
<svg width="610px" height="438px" viewBox="0 0 610 438" version="1.1" xmlns="http://www.w3.org/2000/svg" xmlns:xlink="http://www.w3.org/1999/xlink">
    <!-- Generator: Sketch 62 (91390) - https://sketch.com -->
    <title>Artboard</title>
    <desc>Created with Sketch.</desc>
    <g id="Artboard" stroke="none" stroke-width="1" fill="none" fill-rule="evenodd">
        <rect id="Rectangle" stroke="#9CBAA4" stroke-width="3" fill="#000000" x="35.5" y="38.5" width="534" height="358" rx="29"></rect>
        <rect id="Rectangle" fill="#BB3E01" x="225" y="118" width="71" height="157" rx="15"></rect>
        <rect id="Rectangle" fill="#F7AD45" x="57" y="118" width="71" height="157" rx="15"></rect>
        <rect id="Rectangle" fill="#F7AD45" x="57" y="118" width="71" height="157" rx="15"></rect>
        <rect id="Rectangle" fill="#BB3E01" x="57" y="292" width="492" height="86" rx="15"></rect>
        <text id="reactive-runtime" font-family="Helvetica" font-size="24" font-weight="normal" fill="#000000">
            <tspan x="219" y="344">reactive runtime</tspan>
        </text>
        <text id="application" transform="translate(93.000000, 196.500000) rotate(-90.000000) translate(-93.000000, -196.500000) " font-family="Helvetica" font-size="24" font-weight="normal" fill="#000000">
            <tspan x="35.625" y="203">application</tspan>
        </text>
        <rect id="Rectangle" fill="#F7AD45" x="141" y="118" width="71" height="157" rx="15"></rect>
        <rect id="Rectangle" fill="#F7AD45" x="141" y="118" width="71" height="157" rx="15"></rect>
        <text id="helpers" transform="translate(189.000000, 196.500000) rotate(-90.000000) translate(-189.000000, -196.500000) " font-family="Helvetica" font-size="24" font-weight="normal" fill="#000000">
            <tspan x="149.642578" y="196">helpers</tspan>
        </text>
        <text id="editor" transform="translate(273.000000, 196.500000) rotate(-90.000000) translate(-273.000000, -196.500000) " font-family="Helvetica" font-size="24" font-weight="normal" fill="#000000">
            <tspan x="242.982422" y="196">editor</tspan>
        </text>
        <rect id="Rectangle" fill="#BB3E01" x="309" y="118" width="71" height="157" rx="15"></rect>
        <text id="exporter" transform="translate(357.000000, 196.500000) rotate(-90.000000) translate(-357.000000, -196.500000) " font-family="Helvetica" font-size="24" font-weight="normal" fill="#000000">
            <tspan x="312.978516" y="196">exporter</tspan>
        </text>
        <rect id="Rectangle" fill="#BB3E01" x="393" y="118" width="71" height="157" rx="15"></rect>
        <text id="test-runner" transform="translate(442.000000, 196.500000) rotate(-90.000000) translate(-442.000000, -196.500000) " font-family="Helvetica" font-size="24" font-weight="normal" fill="#000000">
            <tspan x="384.636719" y="196">test runner</tspan>
        </text>
        <rect id="Rectangle" fill="#BB3E01" x="478" y="118" width="71" height="157" rx="15"></rect>
        <text id="renderer" transform="translate(510.000000, 196.500000) rotate(-90.000000) translate(-510.000000, -196.500000) " font-family="Helvetica" font-size="24" font-weight="normal" fill="#000000">
            <tspan x="464.642578" y="196">renderer</tspan>
        </text>
        <circle id="Oval" fill="#000000" cx="92.5" cy="275.5" r="4.5"></circle>
        <circle id="Oval" fill="#000000" cx="176.5" cy="275.5" r="4.5"></circle>
        <circle id="Oval" fill="#BB3E01" cx="176.5" cy="292.5" r="4.5"></circle>
        <circle id="Oval" fill="#BB3E01" cx="92.5" cy="292.5" r="4.5"></circle>
        <circle id="Oval" fill="#BB3E01" cx="260.5" cy="292.5" r="4.5"></circle>
        <circle id="Oval" fill="#BB3E01" cx="344.5" cy="292.5" r="4.5"></circle>
        <circle id="Oval" fill="#BB3E01" cx="428.5" cy="292.5" r="4.5"></circle>
        <circle id="Oval" fill="#BB3E01" cx="513.5" cy="292.5" r="4.5"></circle>
        <circle id="Oval" fill="#000000" cx="260.5" cy="275.5" r="4.5"></circle>
        <circle id="Oval" fill="#000000" cx="344.5" cy="275.5" r="4.5"></circle>
        <circle id="Oval" fill="#000000" cx="428.5" cy="275.5" r="4.5"></circle>
        <circle id="Oval" fill="#000000" cx="513.5" cy="275.5" r="4.5"></circle>
        <text id="lopebook.html" font-family="Helvetica" font-size="36" font-weight="normal" fill="#F7AD45">
            <tspan x="190.558594" y="91">lopebook</tspan>
            <tspan x="336.685547" y="91" font-family="DiwanMishafi, Mishafi">.</tspan>
            <tspan x="341.431641" y="91">html</tspan>
        </text>
    </g>
</svg>